<?xml version="1.0" encoding="UTF-8"?>
<svg width="37px" height="37px" viewBox="0 0 37 37" version="1.1" xmlns="http://www.w3.org/2000/svg" xmlns:xlink="http://www.w3.org/1999/xlink">
    <!-- Generator: Sketch 53.2 (72643) - https://sketchapp.com -->
    <title>3</title>
    <desc>Created with Sketch.</desc>
    <g id="Page-1" stroke="none" stroke-width="1" fill="none" fill-rule="evenodd">
        <g id="Для-граждан-Израиля" transform="translate(-905.000000, -2569.000000)" fill="#F18556">
            <g id="3" transform="translate(905.000000, 2569.000000)">
                <circle id="Oval" opacity="0.3" cx="18.5" cy="18.5" r="18.5"></circle>
                <path d="M14.24,13.78 L14.12,11.48 C15.6666744,11.1599984 17.2133256,11 18.76,11 C20.3066744,11 21.4633295,11.2266644 22.23,11.68 C22.9966705,12.1333356 23.38,12.9733272 23.38,14.2 C23.38,15.0266708 23.2300015,15.7566635 22.93,16.39 C22.6299985,17.0233365 22.0333378,17.8133286 21.14,18.76 L17.6,22.44 C18.1066692,22.3466662 18.7866624,22.3 19.64,22.3 L23.78,22.3 L23.78,25.04 L14,25.04 L14,23.34 C14,22.8199974 14.1466652,22.4066682 14.44,22.1 L17.82,18.46 C19.4733416,16.7399914 20.2933334,15.4266712 20.28,14.52 C20.2666666,14.1333314 20.1200014,13.8833339 19.84,13.77 C19.5599986,13.6566661 19.0800034,13.6 18.4,13.6 C16.9866596,13.6 15.6000068,13.6599994 14.24,13.78 Z" id="2" fill-rule="nonzero"></path>
            </g>
        </g>
    </g>
</svg>