<?xml version="1.0" encoding="UTF-8"?>
<svg width="37px" height="37px" viewBox="0 0 37 37" version="1.1" xmlns="http://www.w3.org/2000/svg" xmlns:xlink="http://www.w3.org/1999/xlink">
    <!-- Generator: Sketch 53.2 (72643) - https://sketchapp.com -->
    <title>3</title>
    <desc>Created with Sketch.</desc>
    <g id="Page-1" stroke="none" stroke-width="1" fill="none" fill-rule="evenodd">
        <g id="Для-граждан-Израиля" transform="translate(-434.000000, -2636.000000)" fill="#F18556">
            <g id="3" transform="translate(434.000000, 2636.000000)">
                <circle id="Oval" opacity="0.3" cx="18.5" cy="18.5" r="18.5"></circle>
                <path d="M14.4,13.56 L14.26,11.36 C15.7400074,11.1199988 17.1866596,11 18.6,11 C20.2400082,11 21.3999966,11.233331 22.08,11.7 C22.7600034,12.166669 23.1,12.999994 23.1,14.2 C23.1,15.2400052 22.9466682,16.0466638 22.64,16.62 C22.3333318,17.1933362 21.7866706,17.546666 21,17.68 L21,17.76 C21.8933378,17.9066674 22.5233315,18.2566639 22.89,18.81 C23.2566685,19.3633361 23.4466666,20.1666614 23.46,21.22 C23.4866668,22.6733406 23.1400036,23.7199968 22.42,24.36 C21.6999964,25.0000032 20.473342,25.32 18.74,25.32 C17.3799932,25.32 15.800009,25.2000012 14,24.96 L14.12,22.68 C15.6133408,22.7733338 16.8799948,22.82 17.92,22.82 C18.8933382,22.82 19.5599982,22.6833347 19.92,22.41 C20.2800018,22.1366653 20.46,21.6066706 20.46,20.82 C20.46,20.1399966 20.3133348,19.6500015 20.02,19.35 C19.7266652,19.0499985 19.1666708,18.9066666 18.34,18.92 L15.76,18.92 L15.76,16.84 L18.34,16.84 C19.140004,16.84 19.6566655,16.6900015 19.89,16.39 C20.1233345,16.0899985 20.2333334,15.6266698 20.22,15 C20.22,14.3466634 20.0800014,13.9300009 19.8,13.75 C19.5199986,13.5699991 18.946671,13.48 18.08,13.48 C16.9333276,13.48 15.7066732,13.5066664 14.4,13.56 Z" fill-rule="nonzero"></path>
            </g>
        </g>
    </g>
</svg>