<?xml version="1.0" encoding="UTF-8"?>
<svg width="37px" height="37px" viewBox="0 0 37 37" version="1.1" xmlns="http://www.w3.org/2000/svg" xmlns:xlink="http://www.w3.org/1999/xlink">
    <!-- Generator: Sketch 53.2 (72643) - https://sketchapp.com -->
    <title>4</title>
    <desc>Created with Sketch.</desc>
    <g id="Page-1" stroke="none" stroke-width="1" fill="none" fill-rule="evenodd">
        <g id="Для-граждан-Израиля" transform="translate(-905.000000, -2702.000000)" fill="#F18556">
            <g id="4" transform="translate(905.000000, 2702.000000)">
                <circle id="Oval" opacity="0.3" cx="18.5" cy="18.5" r="18.5"></circle>
                <path d="M23.6063301,20.6 L23.6063301,22.48 L21.9263301,22.76 L21.8863301,22.76 L21.8863301,25.8 L19.0663301,25.8 L19.0663301,22.76 L13.6063301,22.76 C13.0063271,22.76 12.5563316,22.526669 12.2563301,22.06 C11.9563286,21.593331 11.9196623,21.0800028 12.1463301,20.52 L15.7263301,12 L18.6063301,12 L15.3263301,19.94 C15.2329963,20.1666678 15.2263297,20.3333328 15.3063301,20.44 C15.3863305,20.5466672 15.5263291,20.6 15.7263301,20.6 L19.0663301,20.6 L19.0663301,16.88 L19.5663301,14.68 L21.8863301,14.68 L21.8863301,20.6 L23.6063301,20.6 Z" fill-rule="nonzero"></path>
            </g>
        </g>
    </g>
</svg>