<?xml version="1.0" encoding="UTF-8"?>
<svg width="37px" height="37px" viewBox="0 0 37 37" version="1.1" xmlns="http://www.w3.org/2000/svg" xmlns:xlink="http://www.w3.org/1999/xlink">
    <!-- Generator: Sketch 53.2 (72643) - https://sketchapp.com -->
    <title>5</title>
    <desc>Created with Sketch.</desc>
    <g id="Page-1" stroke="none" stroke-width="1" fill="none" fill-rule="evenodd">
        <g id="Для-граждан-Израиля" transform="translate(-434.000000, -2785.000000)" fill="#F18556">
            <g id="5" transform="translate(434.000000, 2785.000000)">
                <circle id="Oval" opacity="0.3" cx="18.5" cy="18.5" r="18.5"></circle>
                <path d="M22.9,13.36 L17.24,13.36 L17.08,15.86 L19.06,16.1 C20.6466746,16.2733342 21.7699967,16.7333296 22.43,17.48 C23.0900033,18.2266704 23.42,19.2599934 23.42,20.58 C23.42,23.5533482 21.8133494,25.04 18.6,25.04 C17.26666,25.04 15.733342,24.8933348 14,24.6 L14.28,22.24 C15.7600074,22.4000008 16.9466622,22.48 17.84,22.48 C18.840005,22.48 19.5099983,22.3333348 19.85,22.04 C20.1900017,21.7466652 20.3733332,21.2400036 20.4,20.52 C20.4400002,19.6933292 20.2466688,19.1600012 19.82,18.92 C19.3933312,18.6799988 18.51334,18.5000006 17.18,18.38 L15.5,18.18 C15.2066652,18.1533332 14.9700009,18.0333344 14.79,17.82 C14.6099991,17.6066656 14.5266666,17.3533348 14.54,17.06 L14.88,11 L23,11 L22.9,13.36 Z" fill-rule="nonzero"></path>
            </g>
        </g>
    </g>
</svg>