<svg id="contract" xmlns="http://www.w3.org/2000/svg" width="39" height="39" viewBox="0 0 39 39">
  <path id="Shape" d="M.662,26h0a.581.581,0,0,1-.207-.052.653.653,0,0,1-.386-.331.63.63,0,0,1-.034-.488l1.641-4.8a1.327,1.327,0,0,1,1.262-.888,1.442,1.442,0,0,1,.162.01,1.321,1.321,0,0,1,1.169,1.184l.227,2.6.239-.4a1.347,1.347,0,0,1,1.143-.631c.049,0,.08,0,.105,0a1.323,1.323,0,0,1,1.132.81l.42,1.026,1.5-1.794a1.916,1.916,0,0,1-.106-2.106l.666-1.215,1.4-3.647L16.66,5.715l-.58-.325a.644.644,0,0,1-.311-.4.635.635,0,0,1,.064-.488.659.659,0,0,1,.406-.306.621.621,0,0,1,.174-.023.7.7,0,0,1,.334.087l.58.325L19.02,1.777a.677.677,0,0,1,.907-.235L20.26.977a1.984,1.984,0,0,1,1.213-.91,2.048,2.048,0,0,1,1.52.2,1.973,1.973,0,0,1,.933,1.183,1.918,1.918,0,0,1-.2,1.508l-.334.565a.653.653,0,0,1,.308.4.63.63,0,0,1-.068.486L21.966,7.216l.58.325a1.95,1.95,0,0,1,.933,1.184,1.921,1.921,0,0,1-.2,1.481l-2.667,4.5a.666.666,0,0,1-.406.306.641.641,0,0,1-.172.023.687.687,0,0,1-.336-.088.653.653,0,0,1-.308-.414.633.633,0,0,1,.094-.5l2.667-4.5a.638.638,0,0,0,.067-.494.66.66,0,0,0-.313-.4l-.581-.326L15.6,18.005l-2.54,3.01L12.393,22.1a2.018,2.018,0,0,1-1.724.962h-.025A2.079,2.079,0,0,1,10.127,23L8.573,24.915a1.341,1.341,0,0,1-1.04.488,1.2,1.2,0,0,1-.2-.014,1.331,1.331,0,0,1-1.042-.8l-.413-1.021-.247.4a1.347,1.347,0,0,1-1.145.633,1.29,1.29,0,0,1-.3-.033A1.308,1.308,0,0,1,3.16,23.4l-.233-2.639-1.633,4.8A.665.665,0,0,1,.662,26Zm9.8-5.765-.333.565a.639.639,0,0,0,.2.852.682.682,0,0,0,.383.117.729.729,0,0,0,.145-.015.67.67,0,0,0,.433-.31l.333-.559Zm1.493-3.678-.946,2.47.986.559.333.189,1.727-2.035-2.1-1.183h0ZM17.84,6.365l-5.333,9.009,2.307,1.3,5.333-9.009Zm2-3.373L18.507,5.241l2.307,1.3,1.333-2.249ZM21.988,1.3a.645.645,0,0,0-.168.02.671.671,0,0,0-.407.305l-.333.566,1.16.65.333-.566a.666.666,0,0,0,.068-.493.656.656,0,0,0-.314-.4A.731.731,0,0,0,21.988,1.3Z" transform="translate(15 7)" fill="#f18556"/>
  <path id="Path" d="M4.085.167,2.122,2.614.946,1.144a.48.48,0,0,0-.782,0A.789.789,0,0,0,0,1.636a.788.788,0,0,0,.164.492L1.34,3.6a1.009,1.009,0,0,0,.782.4,1.008,1.008,0,0,0,.787-.4L4.867,1.144A.824.824,0,0,0,4.838.2.477.477,0,0,0,4.085.167Z" transform="translate(6 29)" fill="#f18556"/>
  <path id="Path-2" data-name="Path" d="M0,5.5a5.5,5.5,0,1,0,11,0,.647.647,0,1,0-1.294,0A4.206,4.206,0,1,1,8.023,2.135.647.647,0,0,0,8.8,1.1,5.5,5.5,0,0,0,0,5.5Z" transform="translate(3 25)" fill="#f18556"/>
  <path id="Path-3" data-name="Path" d="M17.357,1.333A.655.655,0,0,0,18,.667.655.655,0,0,0,17.357,0H.643A.655.655,0,0,0,0,.667V3.333A.655.655,0,0,0,.643,4H17.357a.667.667,0,0,0,0-1.333H1.286V1.333Z" transform="translate(6 3)" fill="#f18556"/>
  <path id="Path-4" data-name="Path" d="M.682,0C.305,0,0,.224,0,.5s.305.5.682.5H14.318C14.695,1,15,.776,15,.5s-.305-.5-.682-.5Z" transform="translate(7 9)" fill="#f18556"/>
  <path id="Path-5" data-name="Path" d="M14.375,0H.625A.573.573,0,0,0,0,.5.573.573,0,0,0,.625,1h13.75A.573.573,0,0,0,15,.5.573.573,0,0,0,14.375,0Z" transform="translate(11 14)" fill="#f18556"/>
  <path id="Path-6" data-name="Path" d="M15,.5c0-.276-.305-.5-.682-.5H.682C.305,0,0,.224,0,.5s.305.5.682.5H14.318C14.695,1,15,.776,15,.5Z" transform="translate(4 18)" fill="#f18556"/>
  <path id="Path-7" data-name="Path" d="M4.444,0H.556A.53.53,0,0,0,0,.5.53.53,0,0,0,.556,1H4.444A.53.53,0,0,0,5,.5.53.53,0,0,0,4.444,0Z" transform="translate(20 18)" fill="#f18556"/>
  <path id="Path-8" data-name="Path" d="M7.333,1C7.7,1,8,.776,8,.5S7.7,0,7.333,0H.667C.3,0,0,.224,0,.5s.3.5.667.5Z" transform="translate(5 21)" fill="#f18556"/>
  <path id="Path-9" data-name="Path" d="M.556,1H4.444A.53.53,0,0,0,5,.5.53.53,0,0,0,4.444,0H.556A.53.53,0,0,0,0,.5.53.53,0,0,0,.556,1Z" transform="translate(14 21)" fill="#f18556"/>
  <path id="Path-10" data-name="Path" d="M29.348,29.9a.651.651,0,0,0-.652.65v6.5a.651.651,0,0,1-.652.65H1.957a.651.651,0,0,1-.652-.65V1.95a.651.651,0,0,1,.652-.65H28.043a.651.651,0,0,1,.652.65V14.157a.652.652,0,0,0,1.3,0V1.95A1.953,1.953,0,0,0,28.043,0H1.957A1.953,1.953,0,0,0,0,1.95v35.1A1.953,1.953,0,0,0,1.957,39H28.043A1.953,1.953,0,0,0,30,37.05v-6.5A.651.651,0,0,0,29.348,29.9Z" fill="#f18556"/>
</svg>
