<svg id="couple" xmlns="http://www.w3.org/2000/svg" width="50" height="44.719" viewBox="0 0 50 44.719">
  <path id="Shape" d="M5.916,44.718a.732.732,0,0,1-.731-.731V30.713a2.714,2.714,0,0,0-.8-1.93l-2.92-2.922c0,.061-.006.114-.006.159V43.987a.73.73,0,1,1-1.461,0V26.021a3.306,3.306,0,0,1,2.368-3.187l4.967-1.491.52-1.04a.724.724,0,0,1,.652-.4.691.691,0,0,1,.208.031v-.185a8.51,8.51,0,0,1-3.506-6.268A2.436,2.436,0,0,1,3.713,9.855a2.886,2.886,0,0,1-.187-5.012,2.534,2.534,0,0,1-.069-.58A2.463,2.463,0,0,1,5.916,1.8a2.4,2.4,0,0,1,.92.18A7.616,7.616,0,0,1,11.965,0h3.457a7.605,7.605,0,0,1,5.129,1.981,2.407,2.407,0,0,1,.921-.18A2.463,2.463,0,0,1,23.93,4.262a2.52,2.52,0,0,1-.069.58,2.885,2.885,0,0,1-.19,5.013,2.433,2.433,0,0,1-1.493,3.621,8.509,8.509,0,0,1-3.514,6.273v.182a.764.764,0,0,1,.216-.032.726.726,0,0,1,.653.4l.52,1.041L24.834,22.8a.731.731,0,0,1-.212,1.431.823.823,0,0,1-.212-.031l-3.093-.94A19.337,19.337,0,0,1,14.1,32.314a.731.731,0,0,1-.81,0,19.041,19.041,0,0,1-5.4-5.523,17.833,17.833,0,0,1-1.812-3.543l-3.29.988a1.855,1.855,0,0,0-.585.3L5.419,27.75a4.167,4.167,0,0,1,1.227,2.964V43.987A.731.731,0,0,1,5.916,44.718Zm2-20.847h0a18.326,18.326,0,0,0,5.777,6.946,18.255,18.255,0,0,0,5.782-6.954l-1.923,2.406a1.584,1.584,0,0,1-1.245.6h-.025a1.584,1.584,0,0,1-1.251-.638l-.608-.813v3a.73.73,0,1,1-1.461,0v-3l-.608.813a1.584,1.584,0,0,1-1.251.638h-.025a1.584,1.584,0,0,1-1.245-.6ZM18.552,21.61,14.8,23.486l1.4,1.867a.128.128,0,0,0,.1.053.13.13,0,0,0,.107-.049l2.468-3.089-.329-.658Zm-9.717,0-.231.464a.754.754,0,0,1-.077.219l2.448,3.065a.121.121,0,0,0,.1.049h.01a.132.132,0,0,0,.105-.053l1.4-1.867ZM10.175,20.6v.049l3.518,1.761L17.2,20.65V20.6a8.5,8.5,0,0,1-7.027,0ZM11.965,1.462A6.177,6.177,0,0,0,7.977,2.924,2.45,2.45,0,0,1,7.64,6.011a2.888,2.888,0,0,1-1.957,4.1.665.665,0,0,1-.082.023,1,1,0,0,0-.762,1.148,1.06,1.06,0,0,0,1.076.826.731.731,0,0,1,.73.731,7.047,7.047,0,1,0,14.095,0,.732.732,0,0,1,.731-.731,1.06,1.06,0,0,0,1.076-.826,1,1,0,0,0-.7-1.131.572.572,0,0,1-.069-.024,2.886,2.886,0,0,1-2.034-4.119,2.452,2.452,0,0,1-.337-3.089,6.079,6.079,0,0,0-3.989-1.46Zm9.507,1.8a1,1,0,0,0-.415,1.9.733.733,0,0,1,.231,1.159,1.43,1.43,0,1,0,1.428-.406A.732.732,0,0,1,22.3,4.812a1,1,0,0,0-.832-1.549Zm-15.556,0a1,1,0,0,0-1,1,1.014,1.014,0,0,0,.166.55A.731.731,0,0,1,4.67,5.92,1.431,1.431,0,1,0,6.1,6.326a.731.731,0,0,1,.231-1.159,1,1,0,0,0-.415-1.9Z" fill="#f18556"/>
  <path id="Path" d="M4.659.173a.705.705,0,0,0-1.03.114,1.472,1.472,0,0,1-1.164.63A1.472,1.472,0,0,1,1.3.287.705.705,0,0,0,.271.173.8.8,0,0,0,.164,1.262a2.919,2.919,0,0,0,2.3,1.2,2.919,2.919,0,0,0,2.3-1.2A.8.8,0,0,0,4.659.173Z" transform="translate(11.268 14.789)" fill="#f18556"/>
  <path id="Path-2" data-name="Path" d="M.7,0A.742.742,0,0,0,0,.774v.916a.742.742,0,0,0,.7.774.742.742,0,0,0,.7-.774V.774A.742.742,0,0,0,.7,0Z" transform="translate(9.507 10.211)" fill="#f18556"/>
  <path id="Path-3" data-name="Path" d="M.7,0A.742.742,0,0,0,0,.774v.916a.742.742,0,0,0,.7.774.742.742,0,0,0,.7-.774V.774A.742.742,0,0,0,.7,0Z" transform="translate(16.549 10.211)" fill="#f18556"/>
  <path id="Path-4" data-name="Path" d="M4,.213a.787.787,0,0,0-1.077,0L1.279,1.786A4.049,4.049,0,0,0,0,4.734v13.2a.745.745,0,0,0,.761.727.745.745,0,0,0,.761-.727V4.734a2.637,2.637,0,0,1,.832-1.919L4,1.241A.7.7,0,0,0,4,.213Z" transform="translate(20.775 26.056)" fill="#f18556"/>
  <path id="Path-5" data-name="Path" d="M4.659.173a.705.705,0,0,0-1.03.114,1.472,1.472,0,0,1-1.164.63A1.472,1.472,0,0,1,1.3.287.705.705,0,0,0,.271.173.8.8,0,0,0,.164,1.262a2.919,2.919,0,0,0,2.3,1.2,2.919,2.919,0,0,0,2.3-1.2A.8.8,0,0,0,4.659.173Z" transform="translate(34.507 20.775)" fill="#f18556"/>
  <path id="Path-6" data-name="Path" d="M.7,0A.716.716,0,0,0,0,.727v9.462a.716.716,0,0,0,.7.727.716.716,0,0,0,.7-.727V.727A.716.716,0,0,0,.7,0Z" transform="translate(28.521 33.803)" fill="#f18556"/>
  <path id="Path-7" data-name="Path" d="M.7,0A.716.716,0,0,0,0,.727v9.462a.716.716,0,0,0,.7.727.716.716,0,0,0,.7-.727V.727A.716.716,0,0,0,.7,0Z" transform="translate(44.014 33.803)" fill="#f18556"/>
  <path id="Shape-2" data-name="Shape" d="M.732,41.2A.732.732,0,0,1,0,40.468V29.57a5,5,0,0,1,2.445-4.324,3.358,3.358,0,0,1-.714-2.056,3.3,3.3,0,0,1,1.734-2.9c0-.04,0-.08,0-.12a2.891,2.891,0,0,1,1.211-2.352c-.055-.193-.1-.36-.135-.51a8.451,8.451,0,0,1-.184-1.339,10.247,10.247,0,1,1,18.751-5.733,10.163,10.163,0,0,1-1.759,5.732,8.407,8.407,0,0,1-.184,1.341c-.04.172-.084.339-.135.509a2.889,2.889,0,0,1,1.211,2.352c0,.04,0,.08,0,.12a3.3,3.3,0,0,1,1.734,2.9,3.338,3.338,0,0,1-.714,2.056A5,5,0,0,1,25.7,29.57v10.9a.732.732,0,0,1-1.463,0V29.57a3.572,3.572,0,0,0-2.261-3.333l-.14-.056a11.141,11.141,0,0,1-8.987,4.649A10.94,10.94,0,0,1,7.861,29.6a11.741,11.741,0,0,1-4-3.419l-.14.056A3.572,3.572,0,0,0,1.463,29.57v10.9A.732.732,0,0,1,.732,41.2ZM7.174,24.861l-1.9.757a9.684,9.684,0,0,0,7.577,3.753,9.69,9.69,0,0,0,7.578-3.752l-1.9-.758a7.669,7.669,0,0,1-11.357,0Zm2.568-1.53h0a2.446,2.446,0,0,1-1.1.94,6.2,6.2,0,0,0,8.412,0,2.443,2.443,0,0,1-1.1-.94,8.5,8.5,0,0,1-6.222,0Zm10.712-4.07a8.612,8.612,0,0,1-2.247,2.772,8.523,8.523,0,0,1-.913.641.986.986,0,0,0,.382.273l4.172,1.665a1.849,1.849,0,0,0-.643-3.184.728.728,0,0,1-.484-.887,1.363,1.363,0,0,0-.266-1.279Zm-15.2,0a1.365,1.365,0,0,0-.266,1.279.73.73,0,0,1-.485.887,1.848,1.848,0,0,0-.643,3.184l4.171-1.665a.99.99,0,0,0,.382-.273,8.48,8.48,0,0,1-3.161-3.413Zm7.6-17.8A8.771,8.771,0,0,0,5.59,15.179a.73.73,0,0,1,.218.493A6.881,6.881,0,0,0,8.418,20.9a7.071,7.071,0,0,0,8.869,0,7.069,7.069,0,0,0,2.451-3.915,6.944,6.944,0,0,0,.16-1.311.8.8,0,0,1,.022-.152,3.519,3.519,0,0,0-1.929-2.767,2.46,2.46,0,1,1-4.123,2.072,1.473,1.473,0,0,0-2.03,0,2.459,2.459,0,1,1-.341-1.545,3.023,3.023,0,0,1,2.713,0,2.453,2.453,0,0,1,2.107-1.184h.048c-.434-.139-.966-.285-1.518-.436l-.005,0-.005,0h-.005a17,17,0,0,1-5.236-2.1,6.9,6.9,0,0,1-2.474,2.191.73.73,0,1,1-.654-1.305,5.632,5.632,0,0,0,2.27-2.265.733.733,0,0,1,.5-.387.647.647,0,0,1,.156-.017.737.737,0,0,1,.458.16,14.018,14.018,0,0,0,5.376,2.314l.005,0c2.271.613,4.619,1.247,5.676,3.513a8.775,8.775,0,0,0-8.051-12.3Zm3.463,12.094a1,1,0,1,0,1,1A1,1,0,0,0,16.315,13.554Zm-6.926,0a1,1,0,1,0,1,1A1,1,0,0,0,9.389,13.554Z" transform="translate(24.296 3.521)" fill="#f18556"/>
</svg>
