<svg xmlns="http://www.w3.org/2000/svg" width="44.956" height="46.621" viewBox="0 0 44.956 46.621">
  <g id="house-temperature" transform="translate(0 -0.037)">
    <path id="Path" d="M26.4,19.98H.833A.832.832,0,0,1,0,19.148V6.659a.833.833,0,1,1,1.665,0V18.316H26.4a1.9,1.9,0,0,0,1.9-1.9V1.665H2.766A.832.832,0,0,1,2.766,0H29.138a.832.832,0,0,1,.833.832V16.414A3.571,3.571,0,0,1,26.4,19.98Z" transform="translate(14.985 26.678)" fill="#f18556"/>
    <path id="Path-2" data-name="Path" d="M2.3,2.636A2.419,2.419,0,0,1,.066,1.157.833.833,0,0,1,1.6.508a.787.787,0,0,0,1.38.037.833.833,0,0,1,1.5.728A2.436,2.436,0,0,1,2.3,2.636Z" transform="translate(22.08 17.23)" fill="#f18556"/>
    <path id="Path-3" data-name="Path" d="M2.263,2.637A2.436,2.436,0,0,1,.084,1.273a.833.833,0,1,1,1.5-.728A.787.787,0,0,0,2.961.508a.833.833,0,1,1,1.533.649A2.419,2.419,0,0,1,2.263,2.637Z" transform="translate(32.903 17.23)" fill="#f18556"/>
    <path id="Shape" d="M7.492,14.985H.832A.833.833,0,0,1,0,14.153V.833A.833.833,0,0,1,.832,0h6.66a.833.833,0,0,1,.832.832v13.32A.833.833,0,0,1,7.492,14.985ZM1.665,1.665V13.32H6.66V1.665Z" transform="translate(30.803 31.673)" fill="#f18556"/>
    <path id="Shape-2" data-name="Shape" d="M6.66,7.493H.833A.833.833,0,0,1,0,6.66V.833A.833.833,0,0,1,.833,0H6.66a.833.833,0,0,1,.832.833V6.66A.833.833,0,0,1,6.66,7.493Zm-5-5.828V5.828H5.828V1.665Z" transform="translate(19.98 31.673)" fill="#f18556"/>
    <path id="Path-4" data-name="Path" d="M9.99,1.665H.832A.832.832,0,0,1,.832,0H9.99a.832.832,0,1,1,0,1.665Z" transform="translate(18.316 37.5)" fill="#f18556"/>
    <path id="Path-5" data-name="Path" d="M5.108,3.272A6.642,6.642,0,0,1,.216,1.391.832.832,0,1,1,1.448.273,5.053,5.053,0,0,0,5.108,1.607,5.086,5.086,0,0,0,8.748.294a.832.832,0,0,1,1.22,1.133A6.675,6.675,0,0,1,5.108,3.272Z" transform="translate(24.863 20.908)" fill="#f18556"/>
    <path id="Path-6" data-name="Path" d="M19.98,1.665H.833A.832.832,0,1,1,.833,0H19.98a.832.832,0,1,1,0,1.665Z" transform="translate(4.163 44.993)" fill="#f18556"/>
    <path id="Shape-3" data-name="Shape" d="M5.828,16.65h-5A.833.833,0,0,1,0,15.818V3.33a3.33,3.33,0,1,1,6.66,0V15.818A.833.833,0,0,1,5.828,16.65ZM3.33,1.665A1.667,1.667,0,0,0,1.665,3.33V14.985H5V3.33A1.667,1.667,0,0,0,3.33,1.665Z" transform="translate(5.827 0.037)" fill="#f18556"/>
    <path id="Shape-4" data-name="Shape" d="M9.158,22.478a9.159,9.159,0,0,1-3.33-17.69V.833A.833.833,0,0,1,6.66,0h5a.833.833,0,0,1,.832.832V4.788a9.159,9.159,0,0,1-3.33,17.69ZM7.493,1.665V5.378a.829.829,0,0,1-.582.794,7.493,7.493,0,1,0,4.5,0,.828.828,0,0,1-.583-.794V1.665Z" transform="translate(0 15.022)" fill="#f18556"/>
    <path id="Path-7" data-name="Path" d="M2.5,1.665H.832A.832.832,0,0,1,.832,0H2.5a.832.832,0,0,1,0,1.665Z" transform="translate(0.833 2.535)" fill="#f18556"/>
    <path id="Path-8" data-name="Path" d="M2.5,1.665H.832A.833.833,0,0,1,.832,0H2.5a.833.833,0,0,1,0,1.665Z" transform="translate(0.833 5.032)" fill="#f18556"/>
    <path id="Path-9" data-name="Path" d="M2.5,1.665H.832A.833.833,0,0,1,.832,0H2.5a.833.833,0,0,1,0,1.665Z" transform="translate(0.833 7.53)" fill="#f18556"/>
    <path id="Path-10" data-name="Path" d="M2.5,1.665H.832A.832.832,0,0,1,.832,0H2.5a.832.832,0,0,1,0,1.665Z" transform="translate(0.833 10.027)" fill="#f18556"/>
    <path id="Path-11" data-name="Path" d="M2.5,1.665H.832A.832.832,0,0,1,.832,0H2.5a.832.832,0,0,1,0,1.665Z" transform="translate(0.833 12.525)" fill="#f18556"/>
    <path id="Path-12" data-name="Path" d="M2.5,1.665H.832A.832.832,0,0,1,.832,0H2.5a.832.832,0,0,1,0,1.665Z" transform="translate(0.833 15.022)" fill="#f18556"/>
  </g>
</svg>
