<svg xmlns="http://www.w3.org/2000/svg" width="50" height="45.808" viewBox="0 0 50 45.808">
  <g id="house" transform="translate(0 -0.045)">
    <path id="Shape" d="M19.362,45.808a4.987,4.987,0,0,1-1.356-.193l-.059-.019L7.494,41.639v.1a2.608,2.608,0,0,1-2.605,2.605H2.606A2.608,2.608,0,0,1,0,41.736V40.486a.714.714,0,0,1,1.427,0v1.249a1.179,1.179,0,0,0,1.178,1.178H4.889a1.179,1.179,0,0,0,1.178-1.178v-16.9a1.18,1.18,0,0,0-1.178-1.179H2.606a1.18,1.18,0,0,0-1.178,1.179V36.019a.714.714,0,0,1-1.427,0V24.836A2.608,2.608,0,0,1,2.606,22.23H4.89a2.608,2.608,0,0,1,2.6,2.606v.427H8.716a15.238,15.238,0,0,1,2.167.159l-.009-6.278L8.663,21.227a2.52,2.52,0,0,1-1.735.689l-.077,0a2.533,2.533,0,0,1-1.661-4.376l5.8-5.467-.011-6.943a1.134,1.134,0,0,1,1.133-1.137l4.1-.006A1.137,1.137,0,0,1,17.348,5.12l0,.962L23.077.688a2.537,2.537,0,0,1,3.469,0l10.465,9.8a.715.715,0,0,1,.033,1.009.714.714,0,0,1-1.009.033L25.57,1.724a1.108,1.108,0,0,0-1.515,0L6.167,18.578a1.106,1.106,0,0,0,.725,1.911h.031a1.1,1.1,0,0,0,.76-.3L24.328,4.509a.714.714,0,0,1,.977,0L41.993,20.14a1.106,1.106,0,1,0,1.512-1.614l-4.2-3.937a.714.714,0,1,1,.976-1.041l4.2,3.937a2.534,2.534,0,0,1,.117,3.581,2.533,2.533,0,0,1-3.58.116L38.8,19.105,38.819,32.4,45.2,28.127a3.089,3.089,0,0,1,4.268.825,3.091,3.091,0,0,1-.5,4.041l-9.923,8.924-.026.022a7.527,7.527,0,0,1-3.562,1.6l-.011,0L20.084,45.751A4.58,4.58,0,0,1,19.362,45.808ZM7.494,26.69V40.112L18.421,44.25a3.579,3.579,0,0,0,.942.131,3.188,3.188,0,0,0,.5-.039l.011,0h.01l15.352-2.213A6.1,6.1,0,0,0,38.1,40.845l9.913-8.916a1.655,1.655,0,0,0-1.1-2.9,1.643,1.643,0,0,0-.92.28L38.5,34.325l-2.536,1.7a.675.675,0,0,1-.1.054l-.018.007-.018.007c-.022.009-.044.017-.068.024l-.022,0-.022,0h-.006l-.057.01-.045,0-.019,0-.025,0-.04,0-2.988-.167h-.023L16.676,34.585a.714.714,0,0,1,.062-1.425l.063,0,14.986,1.313-.031-.32a3.177,3.177,0,0,0-.1-.519,3.077,3.077,0,0,0-2.417-2.224l-.131-.022-8-.921H21.1a14.983,14.983,0,0,1-5.5-1.913c-.117-.068-.237-.135-.356-.2l-.067-.037c-.128-.069-.245-.13-.358-.186l-.022-.01-.022-.01c-.116-.058-.237-.116-.371-.178l-.005,0-.005,0c-.122-.057-.25-.112-.389-.171l-.043-.018c-.258-.107-.525-.209-.795-.3l-.04-.014c-.133-.046-.264-.088-.388-.126l-.054-.016-.012,0c-.1-.03-.233-.07-.368-.106l-.013,0-.019-.005c-.112-.03-.233-.061-.37-.094l-.056-.014-.056-.014a13.647,13.647,0,0,0-3.078-.353Zm20.744-7.233h0a1.294,1.294,0,0,1,1.292,1.291l.014,9.272a4.5,4.5,0,0,1,3.631,4l.057.569,2.139.12,2.021-1.353-.022-15.585L24.818,6.008,12.3,17.8l.011,7.9.023.006.04.011.027.007.05.014.3.078.055.015.031.01.023.007.118.034.264.08.246.08c.073.024.157.053.24.083s.171.06.256.092l.228.088c.085.033.171.067.257.1l.074.032.027.012.05.022.076.032.072.031.176.076.028.013.089.042.043.021.08.038.066.031.072.035.088.042.039.02.116.059.077.04.048.025.037.02.039.02.053.027.05.026c.156.084.305.168.455.256a13.564,13.564,0,0,0,3.837,1.52l-.012-8.084a1.292,1.292,0,0,1,1.29-1.293Zm-.133,1.428-6.531.009.012,8.194.563.065,5.97.687ZM15.922,5.414l-3.513,0,.009,5.31,3.506-3.3Z" transform="translate(0 0.045)" fill="#f18556"/>
  </g>
</svg>
