<svg id="insurance" xmlns="http://www.w3.org/2000/svg" width="37" height="37" viewBox="0 0 37 37">
  <path id="Shape" d="M.625,1h3.75A.573.573,0,0,0,5,.5.573.573,0,0,0,4.375,0H.625A.573.573,0,0,0,0,.5.573.573,0,0,0,.625,1Z" transform="translate(3 6)" fill="#f18556"/>
  <path id="Shape-2" data-name="Shape" d="M.636,1H6.364A.581.581,0,0,0,7,.5.581.581,0,0,0,6.364,0H.636A.581.581,0,0,0,0,.5.581.581,0,0,0,.636,1Z" transform="translate(10 6)" fill="#f18556"/>
  <path id="Shape-3" data-name="Shape" d="M.618,1H20.382A.568.568,0,0,0,21,.5a.568.568,0,0,0-.618-.5H.618A.568.568,0,0,0,0,.5.568.568,0,0,0,.618,1Z" transform="translate(3 12)" fill="#f18556"/>
  <path id="Shape-4" data-name="Shape" d="M.625,1h8.75A.573.573,0,0,0,10,.5.573.573,0,0,0,9.375,0H.625A.573.573,0,0,0,0,.5.573.573,0,0,0,.625,1Z" transform="translate(3 15)" fill="#f18556"/>
  <path id="Shape-5" data-name="Shape" d="M.625,1h8.75A.573.573,0,0,0,10,.5.573.573,0,0,0,9.375,0H.625A.573.573,0,0,0,0,.5.573.573,0,0,0,.625,1Z" transform="translate(3 20)" fill="#f18556"/>
  <path id="Shape-6" data-name="Shape" d="M.625,1h8.75A.573.573,0,0,0,10,.5.573.573,0,0,0,9.375,0H.625A.573.573,0,0,0,0,.5.573.573,0,0,0,.625,1Z" transform="translate(3 25)" fill="#f18556"/>
  <path id="Shape-7" data-name="Shape" d="M.625,1h8.75A.573.573,0,0,0,10,.5.573.573,0,0,0,9.375,0H.625A.573.573,0,0,0,0,.5.573.573,0,0,0,.625,1Z" transform="translate(3 30)" fill="#f18556"/>
  <path id="Shape-8" data-name="Shape" d="M27.75,37a1.1,1.1,0,0,1-.638-.2l-.506-.359A1.855,1.855,0,0,1,25.284,37H1.85A1.852,1.852,0,0,1,0,35.15V4.316a1.852,1.852,0,0,1,1.85-1.85h.617V1.85A1.852,1.852,0,0,1,4.316,0H27.75A1.853,1.853,0,0,1,29.6,1.85V14.927l7.03,3.036a.616.616,0,0,1,.37.566v8.918a6.293,6.293,0,0,1-2.645,5.1L28.388,36.8A1.094,1.094,0,0,1,27.75,37ZM1.85,3.7a.618.618,0,0,0-.617.617V35.15a.618.618,0,0,0,.617.616H25.284a.615.615,0,0,0,.276-.076L22.2,33.3H3.7a.616.616,0,1,1,0-1.233H20.549a6.347,6.347,0,0,1-1.037-1.234H14.8a.617.617,0,0,1,0-1.233h4.09a6.192,6.192,0,0,1-.312-1.233H3.7a.617.617,0,0,1,0-1.234H18.5V25.9H14.8a.617.617,0,0,1,0-1.234h3.7V23.433H3.7a.616.616,0,1,1,0-1.233H18.5V20.966H14.8a.616.616,0,1,1,0-1.233h3.7v-1.2a.07.07,0,0,1,0-.014.078.078,0,0,0,0-.014H3.7a.617.617,0,0,1,0-1.234H20.485l2.856-1.233H14.8a.617.617,0,0,1,0-1.234h8.634a.618.618,0,0,1,.617.617.6.6,0,0,1-.135.37l1.985-.859V11.1H20.35A1.852,1.852,0,0,1,18.5,9.25V3.7Zm25.9,11.772h0L20.861,18.45l-.012.005-1.116.482v8.51a5.057,5.057,0,0,0,2.127,4.1l5.89,4.193,5.891-4.193a5.057,5.057,0,0,0,2.127-4.1V18.935L27.75,15.472Zm0-1.288a.615.615,0,0,1,.244.05l.371.161V1.85a.618.618,0,0,0-.617-.617H4.316A.618.618,0,0,0,3.7,1.85v.616H19.117l.017,0h.024a.648.648,0,0,1,.153.031.08.08,0,0,0,.026.005l.011,0h.005l.01.006.005,0,.005,0a.616.616,0,0,1,.181.123l7.4,7.4a.612.612,0,0,1,.123.18l0,.005a.065.065,0,0,1,.01.016.094.094,0,0,1,0,.015l0,.007a.1.1,0,0,0,0,.02.669.669,0,0,1,.03.152.058.058,0,0,0,0,.018.086.086,0,0,1,0,.022v3.911l.37-.161A.615.615,0,0,1,27.752,14.184ZM19.733,4.572V9.25a.617.617,0,0,0,.617.616h4.678Z" fill="#f18556"/>
  <path id="Shape-9" data-name="Shape" d="M7,17a.649.649,0,0,1-.369-.113L1.66,13.5A3.72,3.72,0,0,1,0,10.447V3.241a.609.609,0,0,1,.382-.559L6.746.05a.666.666,0,0,1,.509,0l6.363,2.632A.61.61,0,0,1,14,3.241v7.206a3.727,3.727,0,0,1-1.66,3.053L7.369,16.887A.652.652,0,0,1,7,17ZM7,1.274,1.273,3.641v6.806A2.515,2.515,0,0,0,2.4,12.508L7,15.644l4.6-3.132a2.517,2.517,0,0,0,1.125-2.065v-6.8L7,1.274Z" transform="translate(21 17)" fill="#f18556"/>
  <path id="Shape-10" data-name="Shape" d="M1.029,4.2A.7.7,0,0,0,.39,4.13.593.593,0,0,0,0,4.6a.561.561,0,0,0,.253.536l2.571,1.75a.688.688,0,0,0,.888-.1L8.859.948a.548.548,0,0,0-.1-.82.688.688,0,0,0-.9.091L3.1,5.611Z" transform="translate(23 22)" fill="#f18556"/>
</svg>
