<svg xmlns="http://www.w3.org/2000/svg" width="34.88" height="36.346" viewBox="0 0 34.88 36.346">
  <g id="light-bulb" transform="translate(-0.06)">
    <path id="XMLID_49_" d="M18.734,36.347h-2.6a1.205,1.205,0,0,1-1.159-.89l-.254-.965a1.689,1.689,0,0,1-1.436-1.676V31.755a1.026,1.026,0,0,1,1.025-1.025h6.244a1.026,1.026,0,0,1,1.024,1.032v1.062a1.69,1.69,0,0,1-1.428,1.668l-.261.965A1.205,1.205,0,0,1,18.734,36.347Zm10.32-6.275a1.011,1.011,0,0,1-.711-.292l-2.5-2.506a1.01,1.01,0,1,1,1.428-1.428l2.5,2.506a1.006,1.006,0,0,1-.71,1.72Zm-23.236,0a1.006,1.006,0,0,1-.711-1.72l2.506-2.506a1,1,0,0,1,1.421,0,1.007,1.007,0,0,1,0,1.428L6.529,29.78A1.01,1.01,0,0,1,5.819,30.072Zm14.4-.7H14.658A1.473,1.473,0,0,1,13.2,28.127a8.321,8.321,0,0,0-2.213-4.472A8.946,8.946,0,0,1,17.38,8.5h.069A8.949,8.949,0,0,1,23.88,23.663a8.154,8.154,0,0,0-2.2,4.457A1.474,1.474,0,0,1,20.215,29.369ZM17.44,11.016a6.469,6.469,0,0,0-6.462,6.462,1.01,1.01,0,0,0,2.02,0,4.447,4.447,0,0,1,4.442-4.442,1.01,1.01,0,0,0,0-2.02Zm16.43,7.434H30.334a1.01,1.01,0,0,1,0-2.02h3.537a1.01,1.01,0,1,1,0,2.02Zm-29.324,0H1.01a1.01,1.01,0,1,1,0-2.02H4.547a1.01,1.01,0,0,1,0,2.02Zm22.01-9.117a1.03,1.03,0,0,1-.717-.292,1,1,0,0,1,0-1.428l2.5-2.506a1.01,1.01,0,0,1,1.428,1.429l-2.5,2.5A1.011,1.011,0,0,1,26.556,9.333ZM8.324,9.326a1.011,1.011,0,0,1-.711-.292L5.1,6.529A1.01,1.01,0,1,1,6.529,5.1L9.034,7.606a1.006,1.006,0,0,1-.71,1.72ZM17.44,5.557a1.011,1.011,0,0,1-1.01-1.01V1.01a1.01,1.01,0,1,1,2.02,0V4.547A1.011,1.011,0,0,1,17.44,5.557Z" transform="translate(0.06)" fill="#f18556"/>
  </g>
</svg>
