<svg xmlns="http://www.w3.org/2000/svg" width="50" height="39.961" viewBox="0 0 50 39.961">
  <g id="resort" transform="translate(0 -0.02)">
    <path id="Combined_Shape" data-name="Combined Shape" d="M40,39.961V38.3h5V27.472l-2.005,1.5-1-1.331,2.45-1.835L42,23.977l1-1.332,2,1.5v-2.5h1.667v2.5l2-1.494,1,1.331-2.44,1.828,2.445,1.832-1,1.332-2-1.5V38.3H50v1.665Zm-40,0V38.3H3.334V27.473l-2,1.5-1-1.332,2.445-1.833L.333,23.977l1-1.332,2,1.5v-2.5H5v2.5l2-1.5,1,1.332L5.555,25.808,8,27.64,7,28.972l-2-1.5V38.3h5v1.665Zm24.167-.832V33.3h1.667v5.828Zm11.667-4.163v-2.5H37.5v2.5Zm-23.333,0v-2.5h1.667v2.5ZM35.833,30.8v-2.5H37.5v2.5Zm-6.667,0v-2.5h1.667v2.5Zm-3.333,0v-2.5H27.5v2.5Zm-3.334,0v-2.5h1.667v2.5Zm-3.334,0v-2.5h1.667v2.5Zm-6.666,0v-2.5h1.667v2.5Zm23.333-4.162v-2.5H37.5v2.5Zm-6.667,0v-2.5h1.667v2.5Zm-3.333,0v-2.5H27.5v2.5Zm-3.334,0v-2.5h1.667v2.5Zm-3.334,0v-2.5h1.667v2.5Zm-6.666,0v-2.5h1.667v2.5Zm23.333-4.163v-2.5H37.5v2.5Zm-6.667,0v-2.5h1.667v2.5Zm-3.333,0v-2.5H27.5v2.5Zm-3.334,0v-2.5h1.667v2.5Zm-3.334,0v-2.5h1.667v2.5Zm-6.666,0v-2.5h1.667v2.5Zm23.333-4.163v-2.5H37.5v2.5Zm-6.667,0v-2.5h1.667v2.5Zm-3.333,0v-2.5H27.5v2.5Zm-3.334,0v-2.5h1.667v2.5Zm-3.334,0v-2.5h1.667v2.5Zm-6.666,0v-2.5h1.667v2.5Zm23.333-4.163v-2.5H37.5v2.5Zm-6.667,0v-2.5h1.667v2.5Zm-3.333,0v-2.5H27.5v2.5Zm-3.334,0v-2.5h1.667v2.5Zm-3.334,0v-2.5h1.667v2.5Zm-6.666,0v-2.5h1.667v2.5ZM35.833,9.99v-2.5H37.5v2.5Zm-6.667,0v-2.5h1.667v2.5Zm-3.333,0v-2.5H27.5v2.5Zm-3.334,0v-2.5h1.667v2.5Zm-3.334,0v-2.5h1.667v2.5Zm-6.666,0v-2.5h1.667v2.5ZM29.166,5.828V3.33h1.667v2.5Zm-3.333,0V3.33H27.5v2.5Zm-3.334,0V3.33h1.667v2.5Zm-3.334,0V3.33h1.667v2.5ZM40,4.995V3.33h2.5V4.995Zm-32.5,0V3.33H10V4.995Zm6.667-3.33V0H35.833V1.665Z" transform="translate(0 0.02)" fill="#f18556"/>
  </g>
</svg>
