<svg id="tax" xmlns="http://www.w3.org/2000/svg" width="40" height="40" viewBox="0 0 40 40">
  <path id="Shape" d="M40,40H0V17.64l4.666-3.06V0H26.942l8.391,8.391V14.58L40,17.64V40ZM17.011,29.422h0L2.9,38.667H37.1l-14.043-9.2-2.979,1.95-3.066-2ZM38.667,19.239,24.274,28.667,38.667,38.1ZM1.333,19.228V38.1l14.456-9.472ZM6,1.333V20.672l14.075,9.152L34,20.7V9.333H26v-8ZM35.333,16.174v3.655L38.121,18Zm-30.667,0L1.886,18l2.78,1.806Zm22.667-13.9V8h5.724Z" fill="#f18556"/>
  <path id="Path" d="M6,0H.667A.658.658,0,0,0,0,.648.658.658,0,0,0,.667,1.3h2V7.13A.667.667,0,0,0,4,7.13V1.3H6A.658.658,0,0,0,6.667.648.658.658,0,0,0,6,0Z" transform="translate(10 12.222)" fill="#f18556"/>
  <path id="Shape-2" data-name="Shape" d="M6,7.778a.665.665,0,0,1-.62-.408L4.748,5.833H1.918L1.286,7.37a.665.665,0,0,1-.62.408.681.681,0,0,1-.247-.046.654.654,0,0,1-.368-.353.629.629,0,0,1,0-.49L2.714.409a.673.673,0,0,1,1.238,0l2.666,6.48a.629.629,0,0,1,0,.49.654.654,0,0,1-.368.353A.681.681,0,0,1,6,7.778ZM3.334,2.393,2.452,4.537H4.216L3.334,2.393Z" transform="translate(16.667 12.222)" fill="#f18556"/>
  <path id="Path-2" data-name="Path" d="M3.594,3.879,5.463.972A.625.625,0,0,0,5.219.093.724.724,0,0,0,4.272.3L2.784,2.619,1.3.3A.724.724,0,0,0,.35.093.625.625,0,0,0,.106.972L1.974,3.879.106,6.786a.611.611,0,0,0-.021.655.7.7,0,0,0,.6.337.706.706,0,0,0,.61-.324L2.784,5.139,4.272,7.453a.724.724,0,0,0,.946.212.625.625,0,0,0,.244-.879Z" transform="translate(24.444 12.222)" fill="#f18556"/>
</svg>
